<?xml version="1.0" encoding="utf-8"?>
<!-- Generator: Adobe Illustrator 19.1.1, SVG Export Plug-In . SVG Version: 6.00 Build 0)  -->
<svg version="1.1" id="Слой_1" xmlns="http://www.w3.org/2000/svg" xmlns:xlink="http://www.w3.org/1999/xlink" x="0px" y="0px"
	 width="169px" height="45px" viewBox="0 0 169 45" style="enable-background:new 0 0 169 45;" xml:space="preserve">
<style type="text/css">
	.st0{fill:#231F20;}
	.st1{fill:#36C5F3;}
	.st2{opacity:0.4;fill:url(#SVGID_1_);}
	.st3{fill:#6D6F71;}
	.st4{opacity:0.4;fill:url(#SVGID_2_);}
	.st5{fill:#004D72;}
</style>
<g>
	<path class="st0" d="M124,27.7h0.9c0.9,1.9,3.8,4.4,7.4,4.8c1.3,0.1,2.3-0.4,3.2-1.2c0.8-0.8,1.2-1.8,1.2-3c0-0.5-0.1-0.9-0.2-1.4
		c-0.3-1.1-0.9-2-1.9-2.7c-0.9-0.7-2.3-1.6-4.3-2.7c-1.9-1.1-3.4-2.2-4.3-3.3c-0.9-1-1.4-2.4-1.4-4c0-1.8,0.6-3.4,1.9-4.5
		c1.3-1.2,2.9-1.8,4.8-1.8c1.1,0,2.2,0.2,3.4,0.6c1.2,0.4,1.9,0.6,2.1,0.6c0.6,0,1-0.4,1.3-1.3h0.8l0.9,8h-1
		c-0.3-1.2-0.7-2.3-1.4-3.2c-0.7-1-1.4-1.8-2.4-2.4c-0.9-0.6-2-0.9-3.1-0.9c-1.2,0-2.1,0.3-2.9,0.9c-0.7,0.6-1.1,1.5-1.1,2.7
		c0,1.6,1.3,3.2,4,4.7c2.5,1.5,4.2,2.6,5.2,3.2c0.9,0.6,1.7,1.4,2.4,2.4c0.7,1,1,2.2,1,3.6c0,1.9-0.7,3.5-2.2,4.9
		c-1.4,1.4-3.1,2.2-5.5,2c-1,0-2.4-0.5-3.2-0.7c-0.8-0.3-2,0-2.1,0.8h-0.8L124,27.7z"/>
	<path class="st0" d="M78.3,33.1c-1.5-3.4-2.9-6.8-4.3-10.2c-1.4-3.4-2.7-6.7-3.9-10.2c-0.2-0.7-0.5-1.2-0.7-1.7
		c-0.2-0.5-0.7-1.7-2.1-2.4c-0.8-0.4-1.9-0.4-1.9-0.4V7.3c0,0,10.4,0,11.3,0c0.2,0,0.3,0.1,0.4,0.2c0.1,0.1,0.1,0.7,0,0.9
		c-0.1,0.1-0.2,0.2-0.4,0.2c-0.3,0-0.7,0-1,0c-0.3,0-0.6,0.1-0.9,0.2c-0.3,0.1-0.5,0.2-0.7,0.5c-0.2,0.2-0.3,0.5-0.3,0.9
		c0,0.7,0.5,2.5,1.5,5.3c1,2.8,2.6,6.8,4.7,12c0,0.1,0.1,0.2,0.3,0.2c0.1,0,0.2,0,0.3-0.2c1-2.5,1.8-4.7,2.5-6.6
		c0.7-1.9,1.3-3.5,1.8-4.9c0.5-1.4,1.5-4.9,1.7-5.3c0.4-1.3-0.5-2-1.1-2c-0.3,0-1.3,0-1.8,0c-0.2,0-0.3-0.1-0.4-0.2
		c-0.1-0.1-0.1-0.8,0-0.9c0.1-0.1,0.2-0.2,0.3-0.2c0.8,0,8.7,0,8.7,0l0,0.9c0,0-1.2-0.1-2.2,0.6c-0.5,0.4-0.9,1-1.2,1.6
		c-0.3,0.5-1.3,3-1.6,3.7c-1.3,3.2-2.5,6.3-3.7,9.5c-1.2,3.1-2.4,6.3-3.7,9.5c-0.1,0.2-0.2,0.3-0.3,0.4c-0.2,0.1-0.3,0.1-0.5,0.1
		C78.7,33.6,78.5,33.5,78.3,33.1z"/>
	<path class="st0" d="M93.7,29.3c0,1,0.8,1.5,2.5,1.5v0.5h-7.5v-0.5c1.7,0,2.5-0.5,2.5-1.5V16.6c0-1-0.8-1.5-2.5-1.5v-0.5h7.5V15
		c-1.7,0-2.5,0.5-2.5,1.5V29.3z"/>
	<path class="st0" d="M99.5,18c-0.4-0.9-0.8-1.7-1.2-2.2c-0.4-0.5-0.9-0.8-1.6-0.8v-0.5h6.7V15c-0.8,0-1.3,0.1-1.5,0.2
		c-0.3,0.1-0.4,0.4-0.4,0.7c0,0.2,0.4,1.2,1.2,3l3.7,8.3l3.6-9c0.4-1,0.6-1.7,0.6-2.1c0-0.7-0.6-1.1-1.9-1.1v-0.5h5.2V15
		c-0.9,0-1.6,0.6-2.1,1.8c-0.9,2.2-1.9,4.7-3.1,7.7c-1.2,3-2.1,5.3-2.8,7.1h-0.3L99.5,18z"/>
	<path class="st0" d="M122.8,28.3c0.4,0.8,1,2.6,1.6,2.6v0.3l-5.6,0v-0.5c0.6,0,1.1-0.1,1.4-0.2c0.3-0.1,0.4-0.3,0.4-0.6
		c0-0.3-0.2-1-0.6-2l-0.9-2.2h-6.6c-0.1,0.2-0.2,0.6-0.5,1.3c-0.3,0.7-0.5,1.2-0.6,1.6c-0.1,0.4-0.2,0.7-0.2,1c0,0.7,0.6,1,1.7,1
		v0.5h-5v-0.5c0.7-0.1,1.3-0.4,1.6-1c0.4-0.6,0.9-1.8,1.6-3.4l5.1-12.2h0.5L122.8,28.3z M112.8,24.8h5.8l-2.9-6.9L112.8,24.8z"/>
	<path class="st0" d="M140.5,31.4v-0.5c1.4,0,2.2-0.5,2.2-1.5V17c0-1-0.7-1.5-2.2-1.5v-0.5h13.1v3.5h-0.5c-0.1-0.7-0.4-1.3-0.9-1.8
		c-0.5-0.5-1.1-0.7-1.9-0.7h-4c-0.3,0-0.6,0.1-0.8,0.3c-0.2,0.2-0.3,0.4-0.3,0.7v5.3h3.5c1,0,1.7-0.2,2.3-0.5c0.5-0.3,0.8-1,0.8-1.9
		h0.5v5.8h-0.5c0-0.9-0.3-1.5-0.8-1.9c-0.5-0.4-1.3-0.5-2.3-0.5h-3.5v6.1c0,0.6,0.2,1,0.6,1h3.3c0.9,0,1.6-0.1,2.1-0.2
		c0.6-0.1,1.1-0.4,1.6-0.9c0.5-0.5,1-1.2,1.4-2.2h0.7l-1.1,4.2H140.5z"/>
	<path class="st0" d="M165.2,31.4h-6.8v-0.5c1.4,0,2.2-0.5,2.2-1.5V16.1h-1.8c-0.8,0-1.3,0-1.7,0.2c-0.4,0.1-0.7,0.4-1.1,0.8
		c-0.3,0.4-0.5,1.2-0.7,2.2h-0.6l0.1-4.2h14l0.2,4.2h-0.6c-0.2-1-0.4-1.7-0.7-2.2c-0.3-0.5-0.7-0.7-1.1-0.8c-0.4-0.1-1-0.2-1.7-0.2
		h-1.8v13.3c0,1,0.7,1.5,2.2,1.5V31.4z"/>
	<path class="st0" d="M0.1,14.8C10.9,4,16.9,11.1,20.3,17.9C26.8,30.6,31.2,42.2,39,38.8c0,0-9.2,10.1-18.7,1.7
		C12.5,33.6,9.7,11.7,0.1,14.8z"/>
	<path class="st1" d="M0.1,14.8c0,0,14.1-15.7,22.9-0.8c8.1,13.7,12.7,12,20.5,8.6c0,0-13.5,22.6-20.8,15.1
		C15.4,30.1,13.3,6.5,0.1,14.8z"/>
	<linearGradient id="SVGID_1_" gradientUnits="userSpaceOnUse" x1="5.813739e-002" y1="23.3805" x2="43.4486" y2="23.3805">
		<stop  offset="0" style="stop-color:#2B2969"/>
		<stop  offset="0.199" style="stop-color:#273D7C;stop-opacity:0.9005"/>
		<stop  offset="0.6052" style="stop-color:#1D72AD;stop-opacity:0.6974"/>
		<stop  offset="1" style="stop-color:#12AAE2;stop-opacity:0.5"/>
	</linearGradient>
	<path class="st2" d="M0.1,14.8c0,0,14.1-15.7,22.9-0.8c8.1,13.7,12.7,12,20.5,8.6c0,0-13.5,22.6-20.8,15.1
		C15.4,30.1,13.3,6.5,0.1,14.8z"/>
	<path class="st3" d="M19.8,34.5c0,0,7.2,3.1,10.4-2.6c3.1-5.5,9.4-16.6,9.4-16.6s5.7-21,21.5-13.5c0,0-5.9,1.1-8.8,8.1
		c-2.9,6.8-6,15.8-8.6,21.8C41.5,36.8,32,52.5,19.8,34.5z"/>
	<path class="st0" d="M26.6,37.1c0,0-6,2.9-8-3.9c-2-6.8,21.1-18.4,21.1-18.4S33.7,35.1,26.6,37.1z"/>
	<g>
		<path d="M59.4,7.8c-6.2,0.8-12.3,4.5-12.3,4.5l-1.8,7.5c2.8-1.8,8-3.4,11.2-4.1l2.6-6.9C59.3,8.4,59.3,8.1,59.4,7.8z"/>
		<path d="M44.3,21.6l-3,7.8c2.7-1.9,7.5-2.9,11.4-3.7l3.1-7.9C49.2,18.4,44.3,21.6,44.3,21.6z"/>
		<path d="M39.6,30.8L36,37.9c3.1-1.4,8.3-1.8,12.8-2l3.1-8.1C44.8,28.5,39.6,30.8,39.6,30.8z"/>
	</g>
	<path class="st1" d="M61.1,1.8c0,0-8.4-4-12.7,6.1C42,22.7,40.1,28.3,37.5,34c-1.6,3.5-3.2,6.8-8.9,6.5c0,0,6.7,4.9,12-8.1
		c3.1-7.6,6.9-17.1,10-24.1C52.9,3.4,56.8,0.7,61.1,1.8z"/>
	<linearGradient id="SVGID_2_" gradientUnits="userSpaceOnUse" x1="28.6385" y1="21.222" x2="61.1164" y2="21.222">
		<stop  offset="0" style="stop-color:#2B2969"/>
		<stop  offset="0.199" style="stop-color:#273D7C;stop-opacity:0.9005"/>
		<stop  offset="0.6052" style="stop-color:#1D72AD;stop-opacity:0.6974"/>
		<stop  offset="1" style="stop-color:#12AAE2;stop-opacity:0.5"/>
	</linearGradient>
	<path class="st4" d="M61.1,1.8c0,0-8.4-4-12.7,6.1C42,22.7,40.1,28.3,37.5,34c-1.6,3.5-3.2,6.8-8.9,6.5c0,0,6.7,4.9,12-8.1
		c3.1-7.6,6.9-17.1,10-24.1C52.9,3.4,56.8,0.7,61.1,1.8z"/>
	<g>
		<path class="st5" d="M110.7,43.6l1.1-5.5h1.6c0.3,0,0.5,0,0.6,0c0.2,0,0.4,0.1,0.6,0.2c0.2,0.1,0.3,0.3,0.4,0.4
			c0.1,0.2,0.1,0.4,0.1,0.6c0,0.3-0.1,0.6-0.2,0.8c-0.2,0.2-0.4,0.4-0.7,0.5c0.3,0.1,0.5,0.2,0.6,0.4c0.1,0.2,0.2,0.4,0.2,0.7
			c0,0.3-0.1,0.6-0.2,0.9c-0.2,0.3-0.4,0.5-0.6,0.6c-0.3,0.2-0.6,0.2-0.9,0.2H110.7z M111.5,43h1.2c0.3,0,0.5,0,0.6,0
			c0.2,0,0.4-0.1,0.5-0.2c0.1-0.1,0.2-0.2,0.3-0.4c0.1-0.2,0.1-0.3,0.1-0.5c0-0.3-0.1-0.5-0.2-0.6c-0.1-0.1-0.4-0.2-0.8-0.2h-1.3
			L111.5,43z M112,40.4h1c0.5,0,0.8-0.1,1.1-0.3c0.2-0.2,0.3-0.4,0.3-0.7c0-0.2,0-0.3-0.1-0.4c-0.1-0.1-0.2-0.2-0.3-0.2
			c-0.1-0.1-0.3-0.1-0.6-0.1h-1.1L112,40.4z"/>
		<path class="st5" d="M116.2,39.6h0.6l-0.3,1.6h0.7c0.4,0,0.7,0,0.9,0.1c0.2,0.1,0.3,0.2,0.4,0.4c0.1,0.2,0.2,0.4,0.2,0.6
			c0,0.3-0.1,0.5-0.2,0.8c-0.1,0.2-0.3,0.4-0.5,0.5c-0.2,0.1-0.5,0.1-1,0.1h-1.6L116.2,39.6z M116.1,43h0.8c0.3,0,0.5,0,0.7-0.1
			c0.1,0,0.2-0.1,0.3-0.2c0.1-0.1,0.1-0.3,0.1-0.4c0-0.2,0-0.3-0.1-0.4c-0.1-0.1-0.2-0.2-0.3-0.2c-0.1,0-0.3,0-0.6,0h-0.7L116.1,43z
			 M119.8,39.6h0.6l-0.8,4H119L119.8,39.6z"/>
		<path class="st5" d="M123.9,38h0.6c-0.1,0.4-0.2,0.6-0.4,0.7c-0.2,0.1-0.4,0.1-0.7,0.1l-0.6,0c-0.2,0-0.4,0-0.5,0.1
			c-0.1,0.1-0.2,0.2-0.3,0.3c-0.1,0.1-0.2,0.4-0.4,0.9c0.2-0.2,0.5-0.4,0.7-0.4c0.2,0,0.4-0.1,0.5-0.1c0.3,0,0.7,0.1,1,0.4
			c0.3,0.3,0.4,0.7,0.4,1.2c0,0.6-0.2,1.2-0.5,1.7c-0.4,0.5-0.8,0.7-1.4,0.7c-0.5,0-0.8-0.2-1.1-0.5c-0.3-0.3-0.4-0.7-0.4-1.2
			c0-0.5,0.1-1.2,0.4-2c0.2-0.8,0.5-1.3,0.8-1.5c0.3-0.2,0.7-0.3,1.1-0.3l0.6,0C123.8,38.1,123.9,38.1,123.9,38z M123.6,41.2
			c0-0.3-0.1-0.6-0.2-0.8c-0.1-0.2-0.4-0.3-0.6-0.3c-0.4,0-0.7,0.2-1,0.6c-0.3,0.4-0.4,0.8-0.4,1.3c0,0.3,0.1,0.5,0.2,0.7
			c0.2,0.2,0.4,0.3,0.6,0.3c0.4,0,0.7-0.2,1-0.6C123.5,42.1,123.6,41.6,123.6,41.2z"/>
		<path class="st5" d="M127.1,42.9c-0.4,0.5-0.9,0.8-1.3,0.8c-0.3,0-0.5-0.1-0.7-0.3c-0.2-0.2-0.3-0.4-0.3-0.7c0-0.2,0-0.5,0.1-0.9
			l0.4-2.3h0.6l-0.5,2.6c0,0.2-0.1,0.4-0.1,0.5c0,0.2,0,0.3,0.1,0.4c0.1,0.1,0.2,0.1,0.4,0.1c0.2,0,0.3,0,0.5-0.1
			c0.2-0.1,0.3-0.2,0.4-0.4c0.1-0.2,0.2-0.3,0.3-0.6c0.1-0.1,0.1-0.4,0.2-0.7l0.3-1.7h0.6l-0.8,4h-0.6L127.1,42.9z"/>
		<path class="st5" d="M128.2,45.1l1.1-5.5h0.6l-0.1,0.6c0.2-0.2,0.4-0.4,0.6-0.5c0.2-0.1,0.3-0.1,0.5-0.1c0.3,0,0.6,0.1,0.9,0.4
			c0.2,0.3,0.3,0.7,0.3,1.2c0,0.4-0.1,0.8-0.2,1.1c-0.1,0.3-0.3,0.6-0.5,0.8c-0.2,0.2-0.4,0.4-0.6,0.5c-0.2,0.1-0.4,0.1-0.6,0.1
			c-0.4,0-0.8-0.2-1-0.7l-0.4,2.2H128.2z M129.4,41.9c0,0.3,0,0.5,0.1,0.6c0.1,0.2,0.2,0.3,0.3,0.4c0.1,0.1,0.3,0.2,0.5,0.2
			c0.4,0,0.6-0.2,0.9-0.7c0.2-0.4,0.3-0.9,0.3-1.4c0-0.3-0.1-0.6-0.2-0.8c-0.1-0.2-0.3-0.3-0.6-0.3c-0.2,0-0.3,0-0.4,0.1
			c-0.1,0.1-0.3,0.2-0.4,0.4c-0.1,0.2-0.2,0.4-0.3,0.7C129.4,41.5,129.4,41.7,129.4,41.9z"/>
		<path class="st5" d="M134.9,43.1c-0.2,0.2-0.4,0.4-0.6,0.4c-0.2,0.1-0.4,0.1-0.6,0.1c-0.3,0-0.6-0.1-0.8-0.3
			c-0.2-0.2-0.3-0.5-0.3-0.8c0-0.2,0-0.4,0.1-0.6c0.1-0.2,0.2-0.3,0.4-0.4c0.2-0.1,0.3-0.2,0.6-0.2c0.1,0,0.4-0.1,0.8-0.1
			c0.4,0,0.7-0.1,0.8-0.1c0-0.2,0.1-0.3,0.1-0.5c0-0.2-0.1-0.3-0.2-0.4c-0.1-0.1-0.4-0.2-0.6-0.2c-0.3,0-0.5,0.1-0.6,0.2
			c-0.2,0.1-0.3,0.3-0.4,0.5l-0.6-0.1c0.1-0.4,0.3-0.7,0.6-0.9c0.3-0.2,0.6-0.3,1.1-0.3c0.5,0,0.8,0.1,1.1,0.4
			c0.2,0.2,0.3,0.4,0.3,0.7c0,0.2,0,0.5-0.1,0.7l-0.2,1c-0.1,0.3-0.1,0.6-0.1,0.8c0,0.1,0,0.3,0.1,0.5h-0.6
			C134.9,43.4,134.9,43.3,134.9,43.1z M135.1,41.6c-0.1,0-0.2,0.1-0.3,0.1c-0.1,0-0.3,0-0.5,0.1c-0.4,0-0.6,0.1-0.8,0.1
			c-0.1,0.1-0.3,0.1-0.3,0.3c-0.1,0.1-0.1,0.2-0.1,0.4c0,0.2,0.1,0.3,0.2,0.5c0.1,0.1,0.3,0.2,0.5,0.2c0.2,0,0.4-0.1,0.6-0.2
			c0.2-0.1,0.3-0.3,0.5-0.5C135,42.2,135,41.9,135.1,41.6z"/>
		<path class="st5" d="M138.8,42.9c-0.4,0.5-0.9,0.8-1.3,0.8c-0.3,0-0.5-0.1-0.7-0.3c-0.2-0.2-0.3-0.4-0.3-0.7c0-0.2,0-0.5,0.1-0.9
			l0.4-2.3h0.6l-0.5,2.6c0,0.2-0.1,0.4-0.1,0.5c0,0.2,0,0.3,0.1,0.4c0.1,0.1,0.2,0.1,0.4,0.1c0.2,0,0.3,0,0.5-0.1
			c0.2-0.1,0.3-0.2,0.4-0.4c0.1-0.2,0.2-0.3,0.3-0.6c0.1-0.1,0.1-0.4,0.2-0.7l0.3-1.7h0.6l-0.8,4h-0.6L138.8,42.9z M137.7,38h0.4
			c0,0.2,0.1,0.3,0.2,0.4c0.1,0.1,0.2,0.1,0.4,0.1c0.2,0,0.3,0,0.4-0.1c0.1-0.1,0.2-0.2,0.3-0.4h0.4c-0.1,0.3-0.2,0.5-0.4,0.7
			c-0.2,0.2-0.4,0.3-0.7,0.3c-0.3,0-0.5-0.1-0.7-0.3C137.8,38.5,137.7,38.3,137.7,38z"/>
		<path class="st5" d="M143.3,39.6h2.8l-0.8,4h-0.6l0.7-3.4h-1.5l-0.5,2.4c-0.1,0.4-0.2,0.7-0.3,0.9c-0.1,0.2-0.3,0.2-0.6,0.2
			c-0.1,0-0.3,0-0.5-0.1L142,43c0.1,0,0.2,0,0.3,0c0.2,0,0.3,0,0.3-0.1c0-0.1,0.1-0.4,0.2-0.8L143.3,39.6z"/>
		<path class="st5" d="M145.9,45.1l0-0.6c0.1,0,0.3,0.1,0.4,0.1c0.1,0,0.2,0,0.3-0.1c0.1-0.1,0.2-0.2,0.3-0.5l0.2-0.4l-0.6-4h0.6
			l0.3,2c0.1,0.4,0.1,0.8,0.1,1.2l1.6-3.2h0.7l-2.3,4.5c-0.2,0.4-0.4,0.7-0.6,0.9c-0.2,0.1-0.4,0.2-0.6,0.2
			C146.2,45.2,146,45.2,145.9,45.1z"/>
		<path class="st5" d="M150.2,39.6h0.6l-0.1,0.7c-0.1,0.4-0.1,0.7-0.1,0.9c0,0.2,0.1,0.3,0.2,0.4c0.1,0.1,0.3,0.1,0.5,0.1
			c0.3,0,0.6-0.1,0.8-0.2l0.4-1.9h0.6l-0.8,4h-0.6L152,42c-0.3,0.1-0.6,0.2-0.9,0.2c-0.4,0-0.7-0.1-0.9-0.3
			c-0.2-0.2-0.3-0.4-0.3-0.7c0-0.1,0.1-0.5,0.2-1.1L150.2,39.6z"/>
		<path class="st5" d="M154.1,39.6h0.6l-0.5,2.6c0,0.2-0.1,0.4-0.1,0.5c0,0.1,0,0.3,0.1,0.3c0.1,0.1,0.2,0.1,0.3,0.1
			c0.2,0,0.4-0.1,0.6-0.2c0.2-0.1,0.3-0.3,0.4-0.5c0.1-0.2,0.2-0.5,0.3-0.8l0.4-2h0.6l-0.5,2.6c0,0.2-0.1,0.4-0.1,0.5
			c0,0.1,0,0.3,0.1,0.3c0.1,0.1,0.2,0.1,0.3,0.1c0.3,0,0.5-0.1,0.8-0.4c0.3-0.3,0.4-0.6,0.5-1.2c0,0,0-0.1,0-0.1l0.4-1.9h0.6l-0.8,4
			h-0.6l0.1-0.7c-0.3,0.5-0.7,0.8-1.2,0.8c-0.3,0-0.5-0.1-0.6-0.2c-0.2-0.2-0.2-0.3-0.3-0.5c-0.2,0.3-0.4,0.4-0.6,0.6
			c-0.2,0.1-0.4,0.2-0.6,0.2c-0.3,0-0.5-0.1-0.6-0.2c-0.2-0.2-0.3-0.4-0.3-0.6c0-0.2,0-0.5,0.1-0.9L154.1,39.6z"/>
		<path class="st5" d="M161.9,42.2l0.6,0.1c-0.1,0.3-0.3,0.6-0.6,0.9c-0.3,0.3-0.7,0.4-1.1,0.4c-0.3,0-0.5-0.1-0.7-0.2
			c-0.2-0.1-0.4-0.3-0.5-0.6c-0.1-0.3-0.2-0.6-0.2-0.9c0-0.4,0.1-0.9,0.3-1.3c0.2-0.4,0.4-0.7,0.7-0.9c0.3-0.2,0.6-0.3,1-0.3
			c0.4,0,0.8,0.1,1,0.4c0.3,0.3,0.4,0.7,0.4,1.2c0,0.2,0,0.4,0,0.6H160c0,0.1,0,0.1,0,0.2c0,0.4,0.1,0.7,0.2,0.9
			c0.2,0.2,0.4,0.3,0.6,0.3c0.2,0,0.4-0.1,0.6-0.2C161.6,42.7,161.8,42.5,161.9,42.2z M160.1,41.2h2.1c0-0.1,0-0.1,0-0.2
			c0-0.3-0.1-0.6-0.2-0.8c-0.2-0.2-0.4-0.3-0.6-0.3c-0.3,0-0.5,0.1-0.7,0.3C160.3,40.5,160.2,40.8,160.1,41.2z"/>
		<path class="st5" d="M165.8,42.2l0.6,0.1c-0.1,0.3-0.3,0.6-0.6,0.9c-0.3,0.3-0.7,0.4-1.1,0.4c-0.3,0-0.5-0.1-0.7-0.2
			c-0.2-0.1-0.4-0.3-0.5-0.6c-0.1-0.3-0.2-0.6-0.2-0.9c0-0.4,0.1-0.9,0.3-1.3c0.2-0.4,0.4-0.7,0.7-0.9c0.3-0.2,0.6-0.3,1-0.3
			c0.4,0,0.8,0.1,1,0.4c0.3,0.3,0.4,0.7,0.4,1.2c0,0.2,0,0.4,0,0.6h-2.7c0,0.1,0,0.1,0,0.2c0,0.4,0.1,0.7,0.2,0.9
			c0.2,0.2,0.4,0.3,0.6,0.3c0.2,0,0.4-0.1,0.6-0.2C165.5,42.7,165.7,42.5,165.8,42.2z M164,41.2h2.1c0-0.1,0-0.1,0-0.2
			c0-0.3-0.1-0.6-0.2-0.8c-0.2-0.2-0.4-0.3-0.6-0.3c-0.3,0-0.5,0.1-0.7,0.3C164.3,40.5,164.1,40.8,164,41.2z"/>
		<path class="st5" d="M167.2,43.6l0.1-0.8h0.7l-0.1,0.8H167.2z M167.6,42.2l0.4-3l0.2-1.1h0.8l-0.2,1.2l-0.7,2.9H167.6z"/>
	</g>
</g>
</svg>
